<svg width="37" height="44" viewBox="0 0 37 44" fill="none" xmlns="http://www.w3.org/2000/svg">
<path d="M4.31693 2.19361C4.86065 2.19361 5.38562 2.35426 5.82621 2.66095L5.85902 2.68042L5.89183 2.6999L33.9589 19.5194L33.987 19.5389L34.0198 19.5535C35.1495 20.1377 35.3135 21.3693 35.3135 22.0509C35.3135 23.4773 34.3198 24.3973 33.7058 24.8306L5.88715 41.6355L5.85434 41.655L5.82621 41.6745C5.36218 41.9958 4.71534 42.1418 4.31693 42.1418C3.91383 42.1418 3.27168 41.9958 2.80764 41.6745L2.74671 41.6307L2.68109 41.5966C1.80458 41.1439 1.1718 39.995 1.1718 38.8704V5.46015C1.1718 4.00943 2.19831 3.08448 2.80764 2.66095C3.25293 2.35426 3.77321 2.19361 4.31693 2.19361ZM4.31693 0.976562C3.56229 0.976562 2.80764 1.2005 2.16081 1.64837C0.862448 2.54411 0 3.8926 0 5.46015V38.8704C0 40.438 0.862448 42.0104 2.16081 42.6822C2.80764 43.1301 3.67009 43.354 4.32162 43.354C4.97314 43.354 5.8309 43.1301 6.48242 42.6822L34.3339 25.8627C35.6276 24.9669 36.4947 23.6184 36.4947 22.0509C36.4947 20.4833 35.8479 19.1348 34.5495 18.463L6.47774 1.64837C5.8309 1.2005 5.07626 0.976562 4.31693 0.976562Z" fill="url(#paint0_linear_37_257)"/>
<defs>
<linearGradient id="paint0_linear_37_257" x1="-10.0337" y1="22.1653" x2="42.9272" y2="22.1652" gradientUnits="userSpaceOnUse">
<stop stop-color="#F41B3B"/>
<stop offset="1" stop-color="#1884F7"/>
</linearGradient>
</defs>
</svg>
